<?xml version="1.0" encoding="UTF-8"?>
<svg width="96" height="96" enable-background="new 0 0 96 96" version="1.1" viewBox="0 0 96 96" xmlns="http://www.w3.org/2000/svg" xmlns:xlink="http://www.w3.org/1999/xlink"><defs><linearGradient id="a" x1="48" x2="48" y1="8" y2="88.001" gradientUnits="userSpaceOnUse"><stop style="stop-color:#fcfcfc" offset=".04"/><stop style="stop-color:#9e7f00" offset="1"/></linearGradient><linearGradient id="c" x1="11.174" x2="11.174" y1="22.279" y2="10.807" gradientTransform="matrix(3.4729 0 0 3.9554 3.0933 -2.1045)" gradientUnits="userSpaceOnUse"><stop stop-color="#FC3F1D" offset="0"/><stop stop-color="#FF2700" offset="1"/></linearGradient><linearGradient id="b" x1="48" x2="48" y1="8.0107" y2="87.99" gradientUnits="userSpaceOnUse"><stop style="stop-color:#ffcd04" offset=".0364"/><stop style="stop-color:#f1c000" offset="1"/></linearGradient></defs><path d="m88.023 49c0 29.633-10.364 40-40 40-29.635 0-40-10.367-40-40 0-29.634 10.366-40 40-40 29.636 0 40 10.365 40 40z" style="opacity:.4"/><path d="m8 47.989c0.11312 10.299 0.8567 21.623 7.7496 29.888 6.9741 8.0111 18.179 9.6504 28.209 10.043 10.558 0.17716 21.922 0.01926 31.216-5.6603 8.5978-5.2939 11.666-15.73 12.442-25.227 0.69967-10.659 0.8329-21.811-3.1162-31.914-3.0395-8.1733-10.795-13.629-19.125-15.398-9.8541-2.1858-20.128-2.1085-30.106-0.89852-8.7395 1.1452-17.882 5.0176-22.229 13.144-4.3657 7.8806-4.961 17.206-5.0399 26.023z" style="fill-rule:evenodd;fill:url(#b)"/><path d="m48 8c-29.635 0-40 10.365-40 40 0 29.633 10.365 40 40 40 29.637 0 40-10.367 40-40 0-29.635-10.363-40-40-40zm0 79.023c-29.158 0-39-9.847-39-39.023s9.842-39.023 39-39.023 39 9.847 39 39.023-9.842 39.023-39 39.023z" style="fill:url(#a);opacity:.25"/><path d="m38.056 11.438-19.893 22.652c6.6498 7.5632 13.294 15.131 19.947 22.691h16.723c-15.469 0.09673-30.937 0.20991-46.406 0.30664 0.70252 4.3488 1.7079 10.703 2.9204 13.32 14.348-0.0018 29.429 0.09265 43.777 0.08804-5.205 5.0782-10.021 10.532-14.988 15.838h17.023c6.6517-7.5729 13.303-15.146 19.955-22.719l-19.893-22.658h-17.023c5.1754 5.0869 9.9969 10.515 14.941 15.822-4.9816-5.3023-9.8116-10.753-15.021-15.836 15.87-0.0039 31.741-0.0078 47.611-0.01172-0.39833-4.6544-0.95725-9.3685-2.668-13.75l-44.867 0.03711c5.1027-5.1258 9.944-10.502 14.885-15.781z" style="opacity:.5032;stroke-width:3.7063"/><path d="m55.183 70.178c-5.205 5.0782-10.022 10.531-14.989 15.837h17.024l19.955-22.72-19.893-22.656h-17.024c5.1783 5.0858 9.9947 10.52 14.947 15.822-15.614 0.09735-31.273 0.21681-46.888 0.31416 0.37941 4.5905 0.94835 8.9941 2.5744 13.465 14.638-0.0042 29.654-0.05727 44.292-0.06147z" style="fill:url(#c);stroke-width:3.7063"/><path d="m38.17 56.463h17.031c-4.9823-5.3029-9.8133-10.754-15.024-15.837 15.871-0.0042 31.741-0.0085 47.612-0.01275-0.3985-4.6545-0.90276-9.3612-2.614-13.743l-44.921 0.03029c5.1028-5.1259 9.9439-10.502 14.885-15.782h-17.024l-19.893 22.653c6.6501 7.5635 13.295 15.132 19.948 22.692z" style="fill:#fff;filter:url(#e);stroke-width:3.7063"/></svg>
